<svg xmlns="http://www.w3.org/2000/svg" viewBox="0 0 512 512" fill="none">
  <rect width="512" height="512" rx="96" fill="#FFCCBC"/>
  <rect x="96" y="64" width="320" height="384" rx="32" fill="white"/>
  <rect x="96" y="64" width="320" height="96" rx="32" fill="#FFE082"/>
  <text x="256" y="136" text-anchor="middle" font-family="sans-serif" font-size="48" font-weight="bold" fill="#424242">칼로링</text>
  <rect x="128" y="192" width="56" height="48" rx="8" fill="#FFCCBC"/>
  <rect x="208" y="192" width="56" height="48" rx="8" fill="#FFCCBC"/>
  <rect x="288" y="192" width="56" height="48" rx="8" fill="#FFCCBC"/>
  <rect x="128" y="264" width="56" height="48" rx="8" fill="#FFCCBC"/>
  <rect x="208" y="264" width="56" height="48" rx="8" fill="#FFCCBC"/>
  <rect x="288" y="264" width="56" height="48" rx="8" fill="#FFCCBC"/>
  <rect x="128" y="336" width="56" height="48" rx="8" fill="#FFCCBC"/>
  <rect x="208" y="336" width="56" height="48" rx="8" fill="#FFCCBC"/>
  <rect x="288" y="336" width="136" height="48" rx="8" fill="#FFE082"/>
  <rect x="368" y="192" width="56" height="48" rx="8" fill="#FFE082"/>
  <rect x="368" y="264" width="56" height="48" rx="8" fill="#FFE082"/>
</svg>
